<svg xmlns="http://www.w3.org/2000/svg" width="141.6" height="166" viewBox="0 0 141.6 166"><defs><style>.a,.b{fill:none;stroke-linecap:round;stroke-linejoin:round;stroke-width:3px;}.a{stroke:#99deed;}.b{stroke:#00add2;}</style></defs><title>ico-create-connection</title><line class="a" x1="9.1" y1="139.4" x2="9.1" y2="118.2"/><path class="b" d="M15.6,157.1a65.1,65.1,0,0,1,7.5.4s47.9,7,55.4,7,44.7-28.6,59.1-39.4a6.4,6.4,0,0,0,1.1-9.3h0a6.5,6.5,0,0,0-7.7-1.7L92,137.5"/><path class="b" d="M64.1,134H79c.7-.2,9.6-.5,9.6-.5,4.7-.1,7.6-3.4,7.6-7s-2.7-7.3-8.2-7.5l-3.8.2H65.5l-.3-.3-.8-.4a40.8,40.8,0,0,0-16-4.5c-7.5-.5-13.4,2.4-22.6,10l-3.7,1.4-4,.3"/><rect class="b" x="-13.6" y="133.1" width="44.6" height="14.42" rx="3.4" ry="3.4" transform="translate(149 131.6) rotate(90)"/><path class="b" d="M130.8,114.2a6.4,6.4,0,0,0-1.2-6.1h0a6.4,6.4,0,0,0-7.7-1.7L95.3,122.4"/><path class="b" d="M110.5,112.7a6.4,6.4,0,0,0-.5-7.7h0a6.4,6.4,0,0,0-7.7-1.7L77.1,118.7"/><line class="b" x1="85.4" y1="133.6" x2="95" y2="140.5"/><path class="b" d="M85.9,51.3A17.9,17.9,0,0,0,78.7,45h-.2A60.2,60.2,0,0,0,71.6,42l-.3-1.3a12.5,12.5,0,0,0,3.3-6.1s3.5-1.8,1.1-5.9c0,0,1.9-11.4-9-11.6h-.3c-10.9.2-9,11.6-9,11.6-2.3,4,1.1,5.9,1.1,5.9a12.5,12.5,0,0,0,3.3,6.1L61.6,42a60.2,60.2,0,0,0-6.9,2.9h-.2a17.9,17.9,0,0,0-7.2,6.3,4.4,4.4,0,0,0-.8,2.5v6.4h40V53.8A4.4,4.4,0,0,0,85.9,51.3Z"/><path class="b" d="M84.1,80.1,101.3,84,95.9,71.7a41.2,41.2,0,1,0-11.9,8.4"/></svg>