<svg xmlns="http://www.w3.org/2000/svg" width="116.7" height="97.5" viewBox="0 0 116.7 97.5"><defs><style>.a,.b,.c,.d{fill:none;stroke-linejoin:round;}.a{stroke:#ffd7a6;}.a,.c,.d{stroke-linecap:round;}.a,.d{stroke-width:2px;}.b,.c,.d{stroke:#ff9b21;}.b,.c{stroke-width:3px;}</style></defs><title>ico-web-opearations-engineer</title><path class="a" d="M61.1,26.2l-1.5-1.3A14.5,14.5,0,0,1,56.8,9.2l9.9,9.9,5.6-1.5,1.5-5.6L63.8,2.2A14.5,14.5,0,0,1,79.6,5a14.1,14.1,0,0,1-2,21.5"/><path class="a" d="M76.6,26.7c.3.3,2.4-1.3,3.5-2.4a13.2,13.2,0,0,0,2.4-3.5l6,6"/><path class="a" d="M95.6,33.9l11,11a4.7,4.7,0,0,1-.2,6.5,3.5,3.5,0,0,1-2.9,1,4.2,4.2,0,0,1-2.9-1.6l-5.1-5.1"/><line class="b" x1="37.5" y1="32.5" x2="37.5" y2="83.5"/><rect class="c" x="10.5" y="26.8" width="85.1" height="60.55"/><rect class="c" x="1.5" y="87" width="102" height="9"/><rect class="a" x="16.7" y="31.8" width="72.7" height="50.69"/><path class="c" d="M80.7,59V56.7a1.5,1.5,0,0,0-1.4-1.5H77.3a1.5,1.5,0,0,1-1.3-1,12.1,12.1,0,0,0-.7-1.8,1.5,1.5,0,0,1,.2-1.7l1.3-1.4a1.5,1.5,0,0,0-.1-2L75,45.7a1.5,1.5,0,0,0-2,0l-1.4,1.3a1.5,1.5,0,0,1-1.7.2l-1.6-.6a1.5,1.5,0,0,1-1-1.3V43.2a1.5,1.5,0,0,0-1.5-1.4H63.5A1.5,1.5,0,0,0,62,43.2v1.9a1.5,1.5,0,0,1-1,1.3l-1.8.7a1.5,1.5,0,0,1-1.6-.2L56,45.6a1.5,1.5,0,0,0-2,0l-1.6,1.6a1.5,1.5,0,0,0-.1,2l1.3,1.4a1.5,1.5,0,0,1,.2,1.7,12,12,0,0,0-.7,1.8,1.5,1.5,0,0,1-1.3,1H49.8a1.5,1.5,0,0,0-1.4,1.5V59a1.5,1.5,0,0,0,1.4,1.5h1.9a1.5,1.5,0,0,1,1.3,1,12,12,0,0,0,.7,1.8,1.5,1.5,0,0,1-.2,1.6l-1.3,1.4a1.5,1.5,0,0,0,0,2l1.6,1.6a1.5,1.5,0,0,0,2,.1L57.3,69a1.5,1.5,0,0,1,1.7-.2l1.9.8a1.5,1.5,0,0,1,1,1.3v1.9a1.5,1.5,0,0,0,1.5,1.4h2.3a1.5,1.5,0,0,0,1.5-1.4V70.8a1.5,1.5,0,0,1,1-1.3l1.8-.7a1.5,1.5,0,0,1,1.7.2l1.4,1.3a1.5,1.5,0,0,0,2-.1l1.6-1.6a1.5,1.5,0,0,0,0-2l-1.3-1.4a1.5,1.5,0,0,1-.2-1.6,12,12,0,0,0,.7-1.8,1.5,1.5,0,0,1,1.3-1h1.9A1.5,1.5,0,0,0,80.7,59Z"/><circle class="c" cx="64.5" cy="58" r="5.8"/><line class="d" x1="22" y1="42.5" x2="32" y2="42.5"/><line class="d" x1="22" y1="47.5" x2="32" y2="47.5"/><line class="d" x1="22" y1="52.5" x2="32" y2="52.5"/><line class="d" x1="22" y1="57.5" x2="32" y2="57.5"/><path class="a" d="M108.5,57.3a21.1,21.1,0,0,1-7.9,4"/><path class="a" d="M107,23.3a21.2,21.2,0,0,1,8.7,12.1"/><path class="a" d="M89,20.7a21.3,21.3,0,0,1,10.5-.5"/></svg>