<svg xmlns="http://www.w3.org/2000/svg" width="303.5" height="164.4" viewBox="0 0 303.5 164.4"><defs><style>.a,.b,.c{fill:none;stroke:#fff;stroke-miterlimit:10;}.a,.c{stroke-linecap:round;}.a,.b{stroke-width:3px;}.d{fill:#fff;}</style></defs><title>slide-4</title><path class="a" d="M199.4,111.3a106.5,106.5,0,0,1-10.9,15"/><path class="a" d="M73.8,126.3a111.8,111.8,0,0,1-11.3-15"/><path class="b" d="M188.5,126.3c-11.3,13.2-31,30.4-56.9,30.4s-46.1-17.2-57.8-30.4C74.9,126.8,126.4,149.2,188.5,126.3Z"/><path class="b" d="M86.8,130.7a9.3,9.3,0,0,1-.4-4.9c1.2-6.1,8.4-9.8,16-8.2s12.9,7.7,11.7,13.7c0,0,9.7,3.2,27,5l12.7-9.8a23.5,23.5,0,0,1,21.2-4l13.3,4"/><polyline class="b" points="163.5 133.4 166.6 129.8 172.4 131.3"/><line class="a" x1="181.7" y1="124.4" x2="302" y2="124.4"/><line class="c" x1="183.4" y1="136.1" x2="231.1" y2="135.6"/><line class="c" x1="214.9" y1="145.2" x2="255.6" y2="145.2"/><line class="c" x1="258.1" y1="132.7" x2="302" y2="132.7"/><line class="c" x1="248.9" y1="139.4" x2="277.2" y2="139.4"/><path class="b" d="M60.6,164.2S54,106.5,77.2,56.7"/><path class="b" d="M41,164.2S54.6,84.7,74.2,43.7"/><path class="d" d="M298.4,86.4c0-20.4-17.1-22.8-24.5-22.8-26.7,0-29.1,17.3-29.6,21.8,0,0,.2,3.3,4.1,3.5a3.6,3.6,0,0,0,3.9-3.1c1.6-7.5,5.6-14.6,20.4-14.6,6.9,0,12.8,1.3,16.1,5.4,1.8,2.3,2.9,5.2,2.9,9.4a8.4,8.4,0,0,1-2.8,6.6c-2.5,2-5.9,2-22.9,4-23.5,2.8-25.2,14.9-25.2,20.8,0,2.5.7,4.4,1.8,7.6H254c-2.9-3.1-4.8-6-4.8-9.8,0-10,10.1-12.6,22.4-14.5,3.5-.5,9.2-.6,13.1-1.4s5.6-2.3,6.2-2.3h-1.3v9.6c0,8.5-2.1,13.8-7,18.4h11.1c1.3-3.1,2.5-4.7,3.4-7.3C299.3,111.8,298.4,95.7,298.4,86.4Z"/><circle class="b" cx="74.2" cy="35.7" r="8"/><circle class="b" cx="82.2" cy="50.7" r="8"/><path class="b" d="M98.2,35.7a8,8,0,1,1-14.1-5.2"/><path class="c" d="M80.9,31.5S69.8-16.6,11.1,21L.8,48.1l27.5-9.4L41,19.2V29S65.5,16.1,80.9,31.5Z"/><path class="c" d="M84.1,30.5s43.2-43.2,79.4,38.7l-5.6,25.1-18.3-18-2.4-23.7-6,19.7S114.2,33,84.1,30.5Z"/><path class="c" d="M80.4,29.6s24.1-57.8,85.8-10.5c0,0,7.7,22.3,3.7,33.6l-20.5-8.9L145.9,25,142,34.6"/></svg>