<svg xmlns="http://www.w3.org/2000/svg" xmlns:xlink="http://www.w3.org/1999/xlink" width="306" height="127" viewBox="0 0 306 127"><defs><style>.a,.b,.c,.d{fill:none;}.b,.c,.d,.e,.f,.i{stroke:#fff;}.b,.c,.e,.f{stroke-linecap:round;}.b,.f{stroke-miterlimit:10;}.c,.d,.e,.i{stroke-linejoin:round;}.c{stroke-width:3px;}.e,.f{fill:#00c1ae;}.g{clip-path:url(#a);}.h{fill:#fff;}.i{fill:#e0b100;}</style><clipPath id="a"><polygon class="a" points="108.5 104 108.5 84 130.5 84 130.5 35 77.5 35 77.5 104 108.5 104"/></clipPath></defs><title>slide-2</title><line class="b" x1="123.5" y1="126.5" x2="167.5" y2="126.5"/><line class="c" x1="304.5" y1="103.5" x2="1.5" y2="103.5"/><rect class="d" x="183" y="31.5" width="6" height="43"/><polygon class="d" points="187.4 0.5 185.1 0.5 183.4 19.5 189.2 19.5 187.4 0.5"/><polygon class="d" points="191.4 19.5 180.5 19.5 180 31.5 192 31.5 191.4 19.5"/><polygon class="d" points="189.7 21.5 182.2 21.5 181.9 29.5 190.1 29.5 189.7 21.5"/><polygon class="d" points="223.1 19.5 191.1 19.5 192.3 16.5 221.9 16.5 223.1 19.5"/><polygon class="d" points="166 19.5 180.5 19.5 179.3 16.5 166 16.5 166 19.5"/><rect class="d" x="167" y="13.5" width="2" height="3"/><rect class="d" x="169" y="13.5" width="3" height="3"/><rect class="d" x="172" y="13.5" width="2" height="3"/><line class="d" x1="185.1" y1="0.5" x2="170.5" y2="13.5"/><line class="d" x1="187.4" y1="0.5" x2="221" y2="16.5"/><line class="d" x1="187.4" y1="0.5" x2="200.4" y2="16.5"/><line class="d" x1="183" y1="74.5" x2="189" y2="68.5"/><line class="d" x1="183" y1="68.5" x2="189" y2="74.5"/><line class="d" x1="183" y1="68.5" x2="189" y2="62.5"/><line class="d" x1="183" y1="62.5" x2="189" y2="68.5"/><line class="d" x1="183" y1="62.5" x2="189" y2="56.5"/><line class="d" x1="183" y1="56.5" x2="189" y2="62.5"/><line class="d" x1="183" y1="56.5" x2="189" y2="50.5"/><line class="d" x1="183" y1="50.5" x2="189" y2="56.5"/><line class="d" x1="183" y1="50.5" x2="189" y2="44.5"/><line class="d" x1="183" y1="44.5" x2="189" y2="50.5"/><line class="d" x1="183" y1="44.5" x2="189" y2="38.5"/><line class="d" x1="183" y1="38.5" x2="189" y2="44.5"/><line class="d" x1="183" y1="38.5" x2="189" y2="32.5"/><line class="d" x1="183" y1="32.5" x2="189" y2="38.5"/><line class="d" x1="222" y1="20" x2="222" y2="48"/><circle class="d" cx="222" cy="50" r="2"/><rect class="d" x="207" y="57.5" width="30" height="3"/><line class="d" x1="220.5" y1="51.3" x2="209" y2="57.5"/><line class="d" x1="224" y1="51.3" x2="235.5" y2="57.5"/><path class="e" d="M164.5,32.2l-.6,5.8s-1.2,3.8-1.8,3.8L161,36.7S161.8,32.8,164.5,32.2Z"/><path class="e" d="M151,32.2l.6,5.8s1.2,3.8,1.8,3.8l1.1-5.2S153.7,32.8,151,32.2Z"/><path class="f" d="M138.9,28.5l-5.7-6.2s-.6-3.3.7-2,6.6,5.9,6.6,5.9"/><polyline class="f" points="153.7 38 154 53.5 157.2 53.5 158.1 41.3 159.3 53.5 162.4 53.5 162 38"/><polyline class="f" points="140.7 37 140.8 53.5 144 53.5 144.9 41.3 146.1 53.5 149.2 53.5 148.8 38"/><path class="f" d="M155.7,27.8H151v2.6s8.2-.7,11-.7c1.9-1.9,0-2.1,0-2.1h-6.3Z"/><path class="f" d="M143.4,26.8l-2.8-.7-1.9,2.3,1.7,3.4.3,6.8s1.1,3.3,8.1,1l-.4-7.1,3-2.1.3-2.6-3.8-.4"/><path class="f" d="M140.4,53.9a5.2,5.2,0,0,0-.8,2.6H143V54"/><path class="f" d="M148.6,53.9a4,4,0,0,1,1.6,2.6H146V54"/><path class="f" d="M153.5,53.9a5.7,5.7,0,0,0-.7,2.6H156V54"/><path class="f" d="M161.7,53.9s1.7,1.2,1.7,2.6H159V54"/><circle class="f" cx="145.9" cy="25.5" r="2.9"/><path class="f" d="M133.2,22.3a11.9,11.9,0,0,1-2.5-3.1c-.5-1.3,0-1.6,0-1.6s.6.1,3.2,2.7Z"/><path class="f" d="M153.2,33.3,151,32.2l1.8-4.3s9.1-1.5,10.3.6l1.5,3.7-2.3,1.1"/><circle class="f" cx="157.9" cy="25.5" r="2.9"/><path class="f" d="M162.4,31.7,162,38c-4,2.8-8.2,0-8.2,0l-.3-5.9"/><rect class="c" x="108" y="83.5" width="29" height="20"/><rect class="c" x="166" y="74.5" width="29" height="29"/><rect class="c" x="137" y="57.5" width="29" height="46"/><g class="g"><path class="h" d="M130.7,61.4c0-17-14.3-19-20.4-19C88,42.5,86,56.9,85.6,60.6c0,0,.1,2.7,3.5,2.9A3,3,0,0,0,92.3,61c1.3-6.2,4.7-12.2,17-12.2,5.7,0,10.6,1.1,13.4,4.5,1.5,1.9,2.4,4.3,2.4,7.9a7,7,0,0,1-2.3,5.5c-2.1,1.7-4.9,1.7-19,3.3-19.6,2.3-21,11.8-21,16.8,0,9.9,12.4,15.5,21.3,15.8,2.4.1,7.4.2,11.7-1.7a23,23,0,0,0,13.8-13.9C131.4,82,130.7,69.2,130.7,61.4Zm-6.2,16.8c0,14.1-13,17.9-19.2,17.9S89.6,92.2,89.6,84.9s8.5-10.2,18.7-11.8c2.9-.4,7.7,0,10.9-.7s4.7-1.4,5.1-1.4h.1Z"/></g><rect class="f" x="39" y="97.5" width="12" height="5"/><rect class="f" x="51" y="97.5" width="12" height="5"/><rect class="f" x="63" y="97.5" width="12" height="5"/><rect class="f" x="75" y="97.5" width="12" height="5"/><rect class="f" x="45" y="92.5" width="12" height="5"/><rect class="f" x="57" y="92.5" width="12" height="5"/><rect class="f" x="69" y="92.5" width="12" height="5"/><rect class="f" x="51" y="87.5" width="12" height="5"/><rect class="f" x="63" y="87.5" width="12" height="5"/><rect class="f" x="57" y="82.5" width="12" height="5"/><rect class="f" x="215" y="72.5" width="2" height="31"/><rect class="f" x="253" y="72.5" width="2" height="31"/><rect class="f" x="217" y="79.5" width="36" height="3"/><rect class="f" x="217" y="93.5" width="36" height="3"/><line class="i" x1="217" y1="82.5" x2="253" y2="93.5"/><line class="i" x1="217" y1="93.5" x2="253" y2="82.5"/></svg>