<svg xmlns="http://www.w3.org/2000/svg" width="146.5" height="116.3" viewBox="0 0 146.5 116.3"><defs><style>.a,.b,.c{fill:none;stroke-linecap:round;stroke-linejoin:round;}.a,.b{stroke:#ccd5f4;}.a{stroke-width:2px;}.b,.c{stroke-width:3px;}.c{stroke:#8097e3;}</style></defs><title>ico-ship-fast</title><path class="a" d="M37,72.3v-20s-7-1-7-10,8-9,8-9"/><polyline class="b" points="72 42.3 133.1 42.3 118.9 102.3 44 102.3"/><path class="b" d="M133.1,42.3,97.2,72c-6.9,5.7-16,5.7-20.2,0L65.8,57.5"/><line class="b" x1="118.9" y1="102.3" x2="103.1" y2="67.1"/><path class="c" d="M48.3,102.6H25.7a8.6,8.6,0,0,1-8.6-8.6V74H56.9V94.1A8.6,8.6,0,0,1,48.3,102.6Z"/><path class="c" d="M56.9,74.8c0-4.7,8.7-17.3,8.7-17.3h0a35.1,35.1,0,0,0-28.1-56h-.9a35.1,35.1,0,0,0-28.1,56h0s8.7,12.6,8.7,17.3"/><line class="c" x1="17.1" y1="87.7" x2="56.9" y2="87.7"/><path class="a" d="M14.1,27.3A18.6,18.6,0,0,1,31.9,14.1"/><path class="c" d="M47.6,102.6a10.9,10.9,0,1,1-21.7,1.3,11.1,11.1,0,0,1,.1-1.3"/><line class="c" x1="119" y1="23.3" x2="89" y2="23.3"/><line class="c" x1="103" y1="33.3" x2="81" y2="33.3"/><line class="c" x1="145" y1="114.3" x2="104" y2="114.3"/></svg>