<svg xmlns="http://www.w3.org/2000/svg" width="100.9" height="103.6" viewBox="0 0 100.9 103.6"><defs><style>.a,.b,.c,.d{fill:none;stroke-linejoin:round;}.a,.c{stroke:#f6bcb2;}.a,.c,.d{stroke-linecap:round;}.a,.b,.d{stroke-width:3px;}.b,.d{stroke:#e9573f;}.c{stroke-width:2px;}</style></defs><title>ico-senior-software-engineer</title><path class="a" d="M40.3,30.1A26.5,26.5,0,1,1,74.4,59.4"/><line class="b" x1="1" y1="50.1" x2="73" y2="50.1"/><path class="c" d="M58.5,30.7a8.6,8.6,0,1,1,13.5,9.9"/><rect class="d" x="1.5" y="30.1" width="72" height="72" rx="19.8" ry="19.8"/><circle class="c" cx="15.3" cy="39.7" r="2.6"/><circle class="c" cx="26.5" cy="39.7" r="2.6"/><path class="c" d="M99.8,33.1q0,.6,0,1.1a33.3,33.3,0,0,1-5.6,18.6"/><path class="c" d="M70.1,1a33.2,33.2,0,0,1,8.4,2.1"/><path class="c" d="M36.7,18.9A33.5,33.5,0,0,1,57.1,2.1"/><line class="d" x1="88" y1="80.1" x2="99" y2="80.1"/><line class="d" x1="78" y1="92.1" x2="89" y2="92.1"/><polygon class="c" points="51.7 61.2 54.3 66.5 60.3 67.4 56 71.6 57 77.5 51.7 74.7 46.4 77.5 47.4 71.6 43.1 67.4 49 66.5 51.7 61.2"/><polygon class="c" points="23.7 61.2 26.3 66.5 32.3 67.4 28 71.6 29 77.5 23.7 74.7 18.4 77.5 19.4 71.6 15.1 67.4 21 66.5 23.7 61.2"/><polygon class="d" points="37.7 61.2 41.7 69.3 50.7 70.7 44.2 77 45.8 86 37.7 81.8 29.6 86 31.1 77 24.6 70.7 33.6 69.3 37.7 61.2"/></svg>