<svg xmlns="http://www.w3.org/2000/svg" width="146" height="146" viewBox="0 0 146 146"><defs><style>.a,.c{fill:none;stroke-linecap:round;stroke-linejoin:round;}.a{stroke:#ffd7a6;stroke-width:2px;}.b{fill:#ffd7a6;}.c{stroke:#ff9b21;stroke-width:3px;}</style></defs><title>ico-iterate</title><path class="a" d="M26.3,86.3a48.5,48.5,0,1,1,29.9,32.3"/><polygon class="b" points="28.5 84.8 27.4 89.7 23.8 86.3 28.5 84.8"/><path class="c" d="M102.5,74.9V70.6A2.7,2.7,0,0,0,99.9,68l-3.5-.2A2.7,2.7,0,0,1,94,66a22,22,0,0,0-1.4-3.2,2.7,2.7,0,0,1,.4-3l2.3-2.6a2.7,2.7,0,0,0-.1-3.7l-3-3a2.7,2.7,0,0,0-3.7-.1l-2.6,2.4a2.7,2.7,0,0,1-3,.4L80,52a2.7,2.7,0,0,1-1.8-2.4L78,46.1a2.7,2.7,0,0,0-2.7-2.6H71.1A2.7,2.7,0,0,0,68.4,46l-.2,3.5a2.7,2.7,0,0,1-1.9,2.4l-3.2,1.3a2.7,2.7,0,0,1-3-.4l-2.6-2.4a2.7,2.7,0,0,0-3.7.1l-3,3a2.7,2.7,0,0,0-.1,3.7L53,59.8a2.7,2.7,0,0,1,.4,3A22,22,0,0,0,52,66a2.7,2.7,0,0,1-2.4,1.8l-3.5.2a2.7,2.7,0,0,0-2.6,2.7v4.2A2.7,2.7,0,0,0,46,77.6l3.5.2a2.7,2.7,0,0,1,2.4,1.9,21.9,21.9,0,0,0,1.3,3.2,2.7,2.7,0,0,1-.4,3l-2.4,2.6a2.7,2.7,0,0,0,.1,3.7l3,3a2.7,2.7,0,0,0,3.7.1L59.8,93a2.7,2.7,0,0,1,3-.4,22,22,0,0,0,3.5,1.5,2.7,2.7,0,0,1,1.9,2.4l.2,3.5a2.7,2.7,0,0,0,2.7,2.5h4.2A2.7,2.7,0,0,0,78,99.9l.2-3.5A2.7,2.7,0,0,1,80,94a21.9,21.9,0,0,0,3.2-1.4,2.7,2.7,0,0,1,3,.4l2.6,2.3a2.7,2.7,0,0,0,3.7-.1l3-3a2.7,2.7,0,0,0,.1-3.7l-2.4-2.6a2.7,2.7,0,0,1-.4-3,21.9,21.9,0,0,0,1.3-3.2,2.7,2.7,0,0,1,2.4-1.9l3.5-.2A2.7,2.7,0,0,0,102.5,74.9Z"/><circle class="c" cx="73" cy="73" r="10.6"/><circle class="c" cx="73" cy="73" r="71.5"/><path class="a" d="M76.6,15.1A58,58,0,0,1,131,73"/><polygon class="b" points="77.2 17.7 73 15 77.4 12.7 77.2 17.7"/><path class="a" d="M69.4,130.9A58,58,0,0,1,59.3,16.6"/><polygon class="b" points="68.8 128.3 73 131 68.6 133.3 68.8 128.3"/><path class="a" d="M131,73a58,58,0,0,1-41.2,55.5"/></svg>