<svg xmlns="http://www.w3.org/2000/svg" width="116.7" height="97.5" viewBox="0 0 116.7 97.5"><defs><style>.a,.b,.c,.d{fill:none;stroke-linejoin:round;}.a{stroke:#c4f7ed;}.a,.c,.d{stroke-linecap:round;}.a,.d{stroke-width:2px;}.b,.c,.d{stroke:#55cfba;}.b,.c{stroke-width:3px;}</style></defs><title>ico-senior-web-operations-engineer</title><path class="a" d="M61.1,26.2l-1.5-1.3A14.5,14.5,0,0,1,56.8,9.2l9.9,9.9,5.6-1.5,1.5-5.6L63.8,2.2A14.5,14.5,0,0,1,79.6,5a14.1,14.1,0,0,1-2,21.5"/><path class="a" d="M76.6,26.7c.3.3,2.4-1.3,3.5-2.4a13.2,13.2,0,0,0,2.4-3.5l6,6"/><path class="a" d="M95.6,33.9l11,11a4.7,4.7,0,0,1-.2,6.5,3.5,3.5,0,0,1-2.9,1,4.2,4.2,0,0,1-2.9-1.6l-5.1-5.1"/><line class="b" x1="37.5" y1="31.5" x2="37.5" y2="82.5"/><rect class="c" x="10.5" y="26.8" width="85.1" height="60.55"/><rect class="c" x="1.5" y="87" width="102" height="9"/><rect class="a" x="16.7" y="31.8" width="72.7" height="50.69"/><line class="d" x1="22" y1="43.5" x2="32" y2="43.5"/><line class="d" x1="22" y1="48.5" x2="32" y2="48.5"/><line class="d" x1="22" y1="53.5" x2="32" y2="53.5"/><line class="d" x1="22" y1="58.5" x2="32" y2="58.5"/><path class="a" d="M108.5,57.3a21.1,21.1,0,0,1-7.9,4"/><path class="a" d="M107,23.3a21.2,21.2,0,0,1,8.7,12.1"/><path class="a" d="M89,20.7a21.3,21.3,0,0,1,10.5-.5"/><polygon class="a" points="75.8 50.7 77.9 54.9 82.6 55.6 79.2 58.9 80 63.6 75.8 61.4 71.6 63.6 72.4 58.9 69 55.6 73.7 54.9 75.8 50.7"/><polygon class="a" points="53.6 50.7 55.7 54.9 60.4 55.6 57 58.9 57.8 63.6 53.6 61.4 49.4 63.6 50.2 58.9 46.8 55.6 51.5 54.9 53.6 50.7"/><polygon class="c" points="64.7 50.7 67.9 57.2 75 58.2 69.9 63.3 71.1 70.4 64.7 67 58.3 70.4 59.5 63.3 54.3 58.2 61.5 57.2 64.7 50.7"/></svg>