<svg xmlns="http://www.w3.org/2000/svg" xmlns:xlink="http://www.w3.org/1999/xlink" width="295" height="110.2" viewBox="0 0 295 110.2"><defs><style>.a,.b,.c,.d{fill:none;}.b,.c,.d{stroke:#fff;stroke-miterlimit:10;}.b,.c{stroke-width:3px;}.c,.d{stroke-linecap:round;}.e{clip-path:url(#a);}.f{fill:#fff;}</style><clipPath id="a" transform="translate(0 -12.4)"><path class="a" d="M59.5,67S86,72,96.6,70.9c0,0-2.2-8.4-2.2-12.2,0,0-6.1-7.8,0-11.8s8.5-1.3,8.5-1.3a13.1,13.1,0,0,1,2.5,3l7.1-.8V19.4L91.7,0,61.3,6.9,54.4,26.6,53.1,53Z"/></clipPath></defs><title>slide-3</title><path class="b" d="M142.5,70.9H172c20.9,0,58.4,1.6,64.4-11.3s6-5.2,6-5.2,9.4,44.6-48.3,44.6H91.6c-57.8,0-48.3-44.7-48.3-44.7s0-7.5,6,5.3,43.5,11.3,64.4,11.3h28.9" transform="translate(0 -12.4)"/><line class="c" x1="1.5" y1="86.4" x2="293.5" y2="86.4"/><circle class="c" cx="211.5" cy="33.6" r="7.3"/><circle class="c" cx="171.5" cy="39.6" r="7.3"/><path class="c" d="M218.2,49s5.5,6,5.5,18.7" transform="translate(0 -12.4)"/><path class="c" d="M208.5,52.7A116.8,116.8,0,0,1,209.8,70" transform="translate(0 -12.4)"/><path class="c" d="M166.6,57.5A29.1,29.1,0,0,0,168,70.9" transform="translate(0 -12.4)"/><line class="c" x1="193.5" y1="48.9" x2="145.3" y2="108.7"/><polyline class="c" points="177.5 43.8 184 48.9 191.2 51.7 189 54.6 180 52.9"/><circle class="c" cx="135.5" cy="39.6" r="7.3"/><path class="c" d="M130.6,57.5A29.1,29.1,0,0,0,132,70.9" transform="translate(0 -12.4)"/><line class="c" x1="157.5" y1="48.9" x2="109.3" y2="108.7"/><polyline class="c" points="141.5 43.8 148 48.9 155.2 51.7 153 54.6 144 52.9"/><circle class="c" cx="99.5" cy="39.6" r="7.3"/><path class="c" d="M94.6,57.5A29.1,29.1,0,0,0,96,70.9" transform="translate(0 -12.4)"/><line class="c" x1="121.5" y1="48.9" x2="73.3" y2="108.7"/><polyline class="c" points="105.5 43.8 112 48.9 119.2 51.7 117 54.6 108 52.9"/><line class="d" x1="234.5" y1="97.4" x2="242.5" y2="97.4"/><line class="d" x1="187.5" y1="97.4" x2="223.5" y2="97.4"/><line class="d" x1="159.5" y1="108.4" x2="184.5" y2="108.4"/><line class="d" x1="38.5" y1="97.4" x2="63.5" y2="97.4"/><g class="e"><path class="f" d="M105.3,31.4c0-17-14.3-19-20.4-19-22.2,0-24.3,14.4-24.6,18.1,0,0,.1,2.7,3.5,2.9A3,3,0,0,0,67,30.9c1.3-6.2,4.7-12.2,17-12.2,5.7,0,10.6,1.1,13.4,4.5,1.5,1.9,2.4,4.3,2.4,7.9a7,7,0,0,1-2.3,5.5c-2.1,1.7-4.9,1.7-19,3.3-19.6,2.3-21,11.8-21,16.8,0,9.9,12.4,15.5,21.2,15.8,2.4.1,7.4.2,11.7-1.7a23,23,0,0,0,13.8-13.9C106.1,52,105.3,39.1,105.3,31.4Zm-4.8,16.8c0,14.1-13.7,17.9-19.9,17.9s-16-3.9-16-11.2S72.9,44.6,83.1,43c2.9-.4,7.6-.3,10.9-.9s4.6-1.7,5.1-1.7h1.5Z" transform="translate(0 -12.4)"/></g><line class="d" x1="238.5" y1="66.4" x2="211.5" y2="66.4"/><line class="d" x1="54.5" y1="75.4" x2="82.5" y2="75.4"/></svg>