<svg xmlns="http://www.w3.org/2000/svg" width="141.6" height="125.2" viewBox="0 0 141.6 125.2"><defs><style>.a,.b{fill:none;stroke-linecap:round;stroke-linejoin:round;stroke-width:3px;}.a{stroke:#f6bcb2;}.b{stroke:#e9573f;}</style></defs><title>ico-feel-love</title><line class="a" x1="132.5" y1="98.5" x2="132.5" y2="77.4"/><path class="b" d="M125.6,116.2a62,62,0,0,0-6.9.4s-47.9,7-55.4,7S18.5,95.1,4.1,84.3A6.4,6.4,0,0,1,3,75H3a6.5,6.5,0,0,1,7.7-1.7l39,23.4"/><path class="b" d="M77.5,93.1H62.7c-.7-.2-9.6-.5-9.6-.5-4.7-.1-7.6-3.4-7.6-7s2.7-7.3,8.2-7.5l3.8.2H76.1l.3-.3.8-.4a40.8,40.8,0,0,1,16-4.5c7.5-.5,13.4,2.4,22.6,10l3.7,1.4,4,.3"/><rect class="b" x="110.6" y="92.3" width="44.6" height="14.42" rx="3.4" ry="3.4" transform="translate(232.4 -33.5) rotate(90)"/><path class="b" d="M10.9,73.3a6.4,6.4,0,0,1,1.2-6.1h0a6.5,6.5,0,0,1,7.7-1.7L46.3,81.6"/><path class="b" d="M31.1,71.9a6.5,6.5,0,0,1,.5-7.7h0a6.5,6.5,0,0,1,7.7-1.7L64.6,77.9"/><line class="b" x1="56.3" y1="92.8" x2="46.7" y2="99.7"/><path class="b" d="M55.8,27.6,77.5,49.3,99.3,27.5l-.2.2A15.3,15.3,0,0,0,77.5,6h0A15.3,15.3,0,0,0,55.9,27.7"/></svg>