<svg xmlns="http://www.w3.org/2000/svg" width="281" height="83.7" viewBox="0 0 281 83.7"><defs><style>.a,.b,.d,.e{fill:none;stroke:#fff;stroke-miterlimit:10;}.a,.b{stroke-width:3px;}.b,.d,.e{stroke-linecap:round;}.c{fill:#fff;}.d{stroke-width:2px;}</style></defs><title>slide-5</title><path class="a" d="M157.5,35.2"/><polygon class="b" points="46.8 82.2 80.1 41 103.1 82.2 46.8 82.2"/><polyline class="b" points="102.9 82.2 118.6 82.2 80.1 41"/><polyline class="b" points="106.5 67.5 136 32 147.2 18.1 180.6 77.9 114.5 77.5"/><polyline class="b" points="180.3 77.9 203.1 77.9 147.3 18.1"/><polyline class="b" points="184.9 58.4 202.4 36.7 225.3 77.9 203.1 77.9"/><polyline class="b" points="225.1 77.9 240.9 77.9 202.4 36.7"/><line class="b" x1="236.8" y1="73.5" x2="279.5" y2="73.5"/><line class="b" x1="1.5" y1="73.5" x2="53.8" y2="73.5"/><path class="c" d="M136,32l-.4.5-6.7,8.2a17.6,17.6,0,0,0,1.1-6.3V25.1h-.2c-.5.8-2.7,2.1-5,2.6l-10.5,1.8c-9.9,1.5-18,3.3-18,11.3s8.1,10.8,15.1,10.8a21.9,21.9,0,0,0,11.5-3.4l-5.2,6.5-2.4,3a37.8,37.8,0,0,1-5.1.1c-8.5-.2-20.5-5.6-20.5-15.2,0-4.8,1.4-13.9,20.2-16.1,13.6-1.6,16.3-1.6,18.3-3.2a6.8,6.8,0,0,0,2.2-5.3,11.4,11.4,0,0,0-2.3-7.6c-2.7-3.3-7.4-4.3-12.9-4.4-11.8,0-15.1,5.7-16.3,11.7a2.8,2.8,0,0,1-3.2,2.5c-3.2-.2-3.3-2.8-3.3-2.8C92.8,13.8,94.8,0,116.2,0c5.9,0,19.7,2,19.7,18.3C135.8,22.1,136,27.3,136,32Z"/><path class="d" d="M132,37s6.5-1.5,9.5-.5S154,39.7,156,36"/><line class="e" x1="62.5" y1="62.7" x2="84" y2="62.7"/><line class="e" x1="78.5" y1="53.5" x2="87.1" y2="53.5"/><line class="e" x1="122.5" y1="47.5" x2="147.5" y2="47.5"/><line class="e" x1="167" y1="53.5" x2="132.5" y2="53.5"/><line class="e" x1="122.5" y1="62.5" x2="147.5" y2="62.5"/><line class="e" x1="154.5" y1="62.5" x2="160.5" y2="62.5"/><line class="e" x1="199" y1="73.5" x2="211.5" y2="73.5"/><line class="e" x1="212.8" y1="55.4" x2="199.5" y2="55.4"/></svg>