<svg xmlns="http://www.w3.org/2000/svg" width="100.6" height="103.6" viewBox="0 0 100.6 103.6"><defs><style>.a,.b,.c,.d{fill:none;stroke-linejoin:round;}.a,.b{stroke:#f7e094;}.a,.b,.d{stroke-linecap:round;}.a{stroke-width:2px;}.b,.c,.d{stroke-width:3px;}.c,.d{stroke:#e0b100;}</style></defs><title>ico-software-engineer</title><path class="a" d="M58.3,30.7a8.6,8.6,0,1,1,13.5,9.9"/><path class="b" d="M40,30.1A26.5,26.5,0,1,1,74.1,59.4"/><path class="a" d="M99.6,33.1q0,.6,0,1.1A33.3,33.3,0,0,1,94,52.8"/><path class="a" d="M69.9,1a33.2,33.2,0,0,1,8.4,2.1"/><path class="a" d="M36.5,18.9A33.5,33.5,0,0,1,56.9,2.1"/><line class="c" x1="1" y1="50.1" x2="73" y2="50.1"/><rect class="d" x="1.5" y="30.1" width="72" height="72" rx="19.8" ry="19.8"/><line class="d" x1="88" y1="80.1" x2="99" y2="80.1"/><line class="d" x1="78" y1="92.1" x2="89" y2="92.1"/><circle class="a" cx="15.1" cy="39.7" r="2.6"/><circle class="a" cx="26.3" cy="39.7" r="2.6"/><polyline class="d" points="26.4 82 19 74.6 26.1 67.5"/><polyline class="d" points="48.6 67.5 56 74.9 48.9 82"/><line class="d" x1="29.6" y1="82" x2="44.6" y2="67.1"/></svg>