<svg xmlns="http://www.w3.org/2000/svg" xmlns:xlink="http://www.w3.org/1999/xlink" width="129.5" height="129.5" viewBox="0 0 129.5 129.5"><defs><style>.a{fill:none;}.b{clip-path:url(#a);}.c{opacity:0.3;}.d{fill:#fff;}</style><clipPath id="a" transform="translate(-9.9 -11.5)"><path class="a" d="M105,140V114s1.8-8.3,3.8-15.7l-6-5.3S119.7,62.2,143,62.2V0H0V145H105Z"/></clipPath></defs><title>ico-appfolio-icon</title><g class="b"><g class="c"><path class="d" d="M95.9,74.2c-5.5,1.1-13.6,2.5-18.5,3.2-17.3,2.6-31.5,5.9-31.5,19.9,0,12.3,14.2,18.9,26.5,18.9,10.6,0,32.6-6.4,32.6-30.2V69.7h-.4C103.7,71.2,99.8,73.5,95.9,74.2Z" transform="translate(-9.9 -11.5)"/><path class="d" d="M74.7,11.5a64.8,64.8,0,1,0,64.8,64.7A64.7,64.7,0,0,0,74.7,11.5Zm38.6,89.3c-6.2,16.7-18.8,21.5-23.4,23.4-7.4,3.1-15.8,2.9-19.8,2.8-14.9-.4-35.9-9.9-35.9-26.6,0-8.4,2.5-24.4,35.5-28.3,23.9-2.8,28.6-2.8,32.2-5.6a11.9,11.9,0,0,0,3.9-9.3c0-6-1.5-10.1-4.1-13.3-4.7-5.8-13-7.6-22.6-7.6C58.4,36.4,52.7,46.5,50.4,57c-.6,3-2.7,4.5-5.5,4.3-5.6-.4-5.8-4.9-5.8-4.9.6-6.3,4.1-30.6,41.6-30.6,10.4,0,34.5,3.4,34.5,32C115.2,70.9,116.4,92.5,113.3,100.8Z" transform="translate(-9.9 -11.5)"/></g></g></svg>