<svg xmlns="http://www.w3.org/2000/svg" viewBox="0 0 240 116.87">
  <defs>
    <style>
      .\30 57a8335-2ff2-4d93-8dd0-d52a22ba68f6, .\34 636c798-bed7-449f-a83c-3816f294e7ce {
        fill: none;
      }

      .\30 57a8335-2ff2-4d93-8dd0-d52a22ba68f6, .\34 636c798-bed7-449f-a83c-3816f294e7ce, .bbf6073f-55ea-47ba-9eb2-8632b6c11b01 {
        stroke: #fff;
        stroke-linecap: round;
      }

      .\34 636c798-bed7-449f-a83c-3816f294e7ce, .bbf6073f-55ea-47ba-9eb2-8632b6c11b01 {
        stroke-linejoin: round;
        stroke-width: 3px;
      }

      .\30 57a8335-2ff2-4d93-8dd0-d52a22ba68f6 {
        stroke-miterlimit: 10;
      }

      .bbf6073f-55ea-47ba-9eb2-8632b6c11b01 {
        fill: #2d9ad6;
      }

      .b752d401-de18-4a64-9118-c9cda447b41c {
        fill: #fff;
      }
    </style>
  </defs>
  <title>ico-slide-hard-problems</title>
  <g id="bc9cca43-f97b-4640-b622-50caf6f767a9" data-name="Layer 2">
    <g id="b01de4f0-2a69-4a56-97cb-942461a5a8ea" data-name="Layer 1">
      <g>
        <g>
          <g>
            <rect class="4636c798-bed7-449f-a83c-3816f294e7ce" x="106.45" y="26.76" width="41.84" height="64.13"/>
            <rect class="057a8335-2ff2-4d93-8dd0-d52a22ba68f6" x="109.64" y="33.21" width="35.45" height="49.03"/>
            <path class="057a8335-2ff2-4d93-8dd0-d52a22ba68f6" d="M137.32,67.82a3.48,3.48,0,0,1-3.48,3.48h-13a3.48,3.48,0,0,1-3.48-3.48h0a3.48,3.48,0,0,1,3.48-3.48h13a3.48,3.48,0,0,1,3.48,3.48Z"/>
          </g>
          <line class="057a8335-2ff2-4d93-8dd0-d52a22ba68f6" x1="127.37" y1="26.7" x2="127.37" y2="13.86"/>
          <path class="057a8335-2ff2-4d93-8dd0-d52a22ba68f6" d="M172.34,58.82H157a8.32,8.32,0,0,1-7.17,12.54,8.45,8.45,0,0,1-1.27-.09"/>
          <path class="4636c798-bed7-449f-a83c-3816f294e7ce" d="M127.37,13.86h15.2a8.32,8.32,0,1,1,14.57,0h15.2v45"/>
          <path class="057a8335-2ff2-4d93-8dd0-d52a22ba68f6" d="M137.75,91.2a8.32,8.32,0,0,1-7.67,5.08,8.42,8.42,0,0,1-2.72-.45v8"/>
          <path class="4636c798-bed7-449f-a83c-3816f294e7ce" d="M127.37,103.79H112.56a8.32,8.32,0,1,1-15.34,0H82.41V88.52a8.22,8.22,0,0,1-4.15,1.11,8.33,8.33,0,0,1,0-16.65,8.22,8.22,0,0,1,4.15,1.11V58.82"/>
          <path class="057a8335-2ff2-4d93-8dd0-d52a22ba68f6" d="M148.59,71.27a8.45,8.45,0,0,0,1.27.09A8.32,8.32,0,0,0,157,58.82h15.31"/>
          <path class="057a8335-2ff2-4d93-8dd0-d52a22ba68f6" d="M127.37,103.79v-8a8.42,8.42,0,0,0,2.72.45,8.32,8.32,0,0,0,7.67-5.08"/>
          <path class="4636c798-bed7-449f-a83c-3816f294e7ce" d="M172.34,58.82V73.63a8.33,8.33,0,1,1,0,15.35v14.81h-45"/>
          <path class="057a8335-2ff2-4d93-8dd0-d52a22ba68f6" d="M106.45,69.73a8.33,8.33,0,0,1-9.88-8.17A8.27,8.27,0,0,1,97,58.82H82.41"/>
          <line class="057a8335-2ff2-4d93-8dd0-d52a22ba68f6" x1="127.37" y1="13.86" x2="127.37" y2="26.7"/>
          <path class="4636c798-bed7-449f-a83c-3816f294e7ce" d="M82.41,58.82V42.11a8.41,8.41,0,0,0,4.17,1.11,8.32,8.32,0,1,0-4.17-15.54V13.86h15.2a8.32,8.32,0,1,1,14.56,0h15.2"/>
          <path class="bbf6073f-55ea-47ba-9eb2-8632b6c11b01" d="M198,35.63a17.21,17.21,0,0,1-17.19,17.2h-8.48s.17-22.49,0-22.49H157.39a6,6,0,0,1,0-11.9H172l.51,0v0h8.32A17.19,17.19,0,0,1,198,35.63Z"/>
          <path class="bbf6073f-55ea-47ba-9eb2-8632b6c11b01" d="M57,80.29a17.21,17.21,0,0,0,17.19,17.2h8.48S82.49,75,82.66,75H97.61a6,6,0,0,0,0-11.9H83l-.51,0v0H74.18A17.19,17.19,0,0,0,57,80.29Z"/>
        </g>
        <line class="4636c798-bed7-449f-a83c-3816f294e7ce" x1="1.5" y1="45.34" x2="69.94" y2="45.34"/>
        <line class="4636c798-bed7-449f-a83c-3816f294e7ce" x1="188.5" y1="97.49" x2="238.5" y2="97.49"/>
        <line class="057a8335-2ff2-4d93-8dd0-d52a22ba68f6" x1="213.5" y1="82.87" x2="231.5" y2="82.87"/>
        <line class="057a8335-2ff2-4d93-8dd0-d52a22ba68f6" x1="13.5" y1="59.3" x2="31.5" y2="59.3"/>
        <path class="b752d401-de18-4a64-9118-c9cda447b41c" d="M133,46.4c0-4-3.34-4.43-4.78-4.43-5.2,0-5.67,3.37-5.76,4.24a.78.78,0,0,0,.81.68.69.69,0,0,0,.77-.6c.31-1.45,1.1-2.85,4-2.85a3.87,3.87,0,0,1,3.14,1.05,2.76,2.76,0,0,1,.56,1.84,1.64,1.64,0,0,1-.54,1.29c-.49.39-1.15.39-4.45.78-4.57.54-4.91,2.76-4.91,3.92,0,2.32,2.9,3.63,5,3.68a6.69,6.69,0,0,0,2.74-.39,5.39,5.39,0,0,0,3.24-3.24C133.12,51.21,133,48.21,133,46.4Zm-1,3.93c0,3.3-3.25,4.18-4.71,4.18-1.69,0-3.77-.91-3.77-2.62,0-1.95,1.92-2.39,4.32-2.76.68-.1,1.77-.2,2.53-.35a6.26,6.26,0,0,0,1.18-.53h.46Z"/>
      </g>
    </g>
  </g>
</svg>
