<svg xmlns="http://www.w3.org/2000/svg" width="100.9" height="103.6" viewBox="0 0 100.9 103.6"><defs><style>.a,.b,.c,.d{fill:none;stroke-linejoin:round;}.a,.b{stroke:#ccd5f4;}.a,.b,.d{stroke-linecap:round;}.a{stroke-width:2px;}.b,.c,.d{stroke-width:3px;}.c,.d{stroke:#8097e3;}</style></defs><title>ico-staff-software-engineer</title><path class="a" d="M58.6,30.7a8.6,8.6,0,1,1,13.5,9.9"/><circle class="a" cx="15.4" cy="39.7" r="2.6"/><circle class="a" cx="26.6" cy="39.7" r="2.6"/><path class="b" d="M40.3,30.1A26.5,26.5,0,1,1,74.4,59.4"/><path class="a" d="M99.9,33.1c0,.4,0,.8,0,1.1a33.3,33.3,0,0,1-5.6,18.6"/><path class="a" d="M70.2,1a33.2,33.2,0,0,1,8.4,2.1"/><path class="a" d="M36.8,18.9A33.5,33.5,0,0,1,57.2,2.1"/><line class="c" x1="1" y1="50.1" x2="73" y2="50.1"/><rect class="d" x="1.5" y="30.1" width="72" height="72" rx="19.8" ry="19.8"/><line class="d" x1="88" y1="80.1" x2="99" y2="80.1"/><line class="d" x1="78" y1="92.1" x2="89" y2="92.1"/><path class="d" d="M54,74.2V71.9a1.5,1.5,0,0,0-1.4-1.5H50.6a1.5,1.5,0,0,1-1.3-1,12.1,12.1,0,0,0-.7-1.8,1.5,1.5,0,0,1,.2-1.7L50,64.5a1.5,1.5,0,0,0-.1-2l-1.6-1.6a1.5,1.5,0,0,0-2,0l-1.4,1.3a1.5,1.5,0,0,1-1.7.2l-1.6-.6a1.5,1.5,0,0,1-1-1.3V58.4A1.5,1.5,0,0,0,39.1,57H36.8a1.5,1.5,0,0,0-1.5,1.4v1.9a1.5,1.5,0,0,1-1,1.3l-1.8.7a1.5,1.5,0,0,1-1.6-.2l-1.4-1.3a1.5,1.5,0,0,0-2,0l-1.6,1.6a1.5,1.5,0,0,0-.1,2L26.9,66a1.5,1.5,0,0,1,.2,1.7,12.1,12.1,0,0,0-.7,1.8,1.5,1.5,0,0,1-1.3,1H23a1.5,1.5,0,0,0-1.4,1.5v2.3A1.5,1.5,0,0,0,23,75.7h1.9a1.5,1.5,0,0,1,1.3,1,12,12,0,0,0,.7,1.8,1.5,1.5,0,0,1-.2,1.6l-1.3,1.4a1.5,1.5,0,0,0,0,2l1.6,1.6a1.5,1.5,0,0,0,2,.1l1.4-1.3a1.5,1.5,0,0,1,1.7-.2l1.9.8a1.5,1.5,0,0,1,1,1.3V88a1.5,1.5,0,0,0,1.5,1.4h2.3A1.5,1.5,0,0,0,40.6,88V86a1.5,1.5,0,0,1,1-1.3l1.8-.7a1.5,1.5,0,0,1,1.7.2l1.4,1.3a1.5,1.5,0,0,0,2-.1l1.6-1.6a1.5,1.5,0,0,0,0-2l-1.3-1.4a1.5,1.5,0,0,1-.2-1.6,12,12,0,0,0,.7-1.8,1.5,1.5,0,0,1,1.3-1h1.9A1.5,1.5,0,0,0,54,74.2Z"/><circle class="d" cx="37.8" cy="73.2" r="5.8"/></svg>