<svg xmlns="http://www.w3.org/2000/svg" width="100.9" height="103.6" viewBox="0 0 100.9 103.6"><defs><style>.a,.b,.c,.d{fill:none;stroke-linejoin:round;}.a,.d{stroke:#c4f7ed;}.a,.b,.d{stroke-linecap:round;}.a,.b,.c{stroke-width:3px;}.b,.c{stroke:#55cfba;}.d{stroke-width:2px;}.e{fill:#c4f7ed;}</style></defs><title>ico-software-engineer-intern</title><path class="a" d="M40.3,30.1A26.5,26.5,0,1,1,74.4,59.4"/><polygon class="b" points="38.1 77.2 19 69.5 38.1 61.8 57.1 69.5 38.1 77.2"/><polyline class="c" points="50.6 72.1 52.6 84.1 23.6 84.1 25.6 72.1"/><polyline class="d" points="37.3 69.7 47 73.3 47 79.6"/><circle class="e" cx="47.6" cy="79.6" r="1.8"/><line class="c" x1="1" y1="50.1" x2="73" y2="50.1"/><path class="d" d="M58.6,30.7a8.6,8.6,0,1,1,13.5,9.9"/><rect class="b" x="1.5" y="30.1" width="72" height="72" rx="19.8" ry="19.8"/><circle class="d" cx="15.4" cy="39.7" r="2.6"/><circle class="d" cx="26.6" cy="39.7" r="2.6"/><path class="d" d="M99.9,33.1q0,.6,0,1.1a33.3,33.3,0,0,1-5.6,18.6"/><path class="d" d="M70.2,1a33.2,33.2,0,0,1,8.4,2.1"/><path class="d" d="M36.8,18.9A33.5,33.5,0,0,1,57.2,2.1"/><line class="b" x1="88" y1="80.1" x2="99" y2="80.1"/><line class="b" x1="78" y1="92.1" x2="89" y2="92.1"/></svg>