<svg xmlns="http://www.w3.org/2000/svg" xmlns:xlink="http://www.w3.org/1999/xlink" viewBox="0 0 225.6 149.7">
  <defs>
    <style>
      .\33 d0428a7-2a4f-463d-8d7e-65713d5f663d, .\37 e6ab611-a243-4db2-987d-873dcdbac350, .\38 8f65db6-9b64-4de3-8c12-f9b668d9a536, .fa42ff35-00ff-42df-95c1-378c2a481dd2 {
        fill: none;
      }

      .\33 d0428a7-2a4f-463d-8d7e-65713d5f663d, .\38 8f65db6-9b64-4de3-8c12-f9b668d9a536, .fa42ff35-00ff-42df-95c1-378c2a481dd2 {
        stroke: #fff;
      }

      .\33 d0428a7-2a4f-463d-8d7e-65713d5f663d, .fa42ff35-00ff-42df-95c1-378c2a481dd2 {
        stroke-linecap: round;
      }

      .\33 d0428a7-2a4f-463d-8d7e-65713d5f663d {
        stroke-miterlimit: 10;
      }

      .\38 8f65db6-9b64-4de3-8c12-f9b668d9a536, .fa42ff35-00ff-42df-95c1-378c2a481dd2 {
        stroke-linejoin: round;
        stroke-width: 3px;
      }

      .\35 7625d81-2fc1-49c2-b32b-3856f2c2be73 {
        clip-path: url(#b5158767-b2a0-4bfe-8828-1f807f2d0100);
      }

      .\37 4390b8b-8022-48c8-99a0-c52bbcc4300a {
        fill: #fff;
      }
    </style>
    <clipPath id="b5158767-b2a0-4bfe-8828-1f807f2d0100">
      <path class="7e6ab611-a243-4db2-987d-873dcdbac350" d="M86.23,72.95s15.35,4,22,10.72l-6.08,9.39,17.15.33.43-9.71s2.52-5.36,10.94-5.36h10.74V28.87H86.23Z"/>
    </clipPath>
  </defs>
  <title>ico-slide-customer-first</title>
  <g id="a6581929-c99f-4fbc-9fdf-43866f16639c" data-name="Layer 2">
    <g id="ed8ff14f-7848-4d51-a299-80af23088497" data-name="Layer 1">
      <g>
        <line class="3d0428a7-2a4f-463d-8d7e-65713d5f663d" x1="18.5" y1="117.82" x2="36.5" y2="117.82"/>
        <line class="3d0428a7-2a4f-463d-8d7e-65713d5f663d" x1="0.5" y1="61.13" x2="18.5" y2="61.13"/>
        <line class="3d0428a7-2a4f-463d-8d7e-65713d5f663d" x1="200.75" y1="145.21" x2="218.75" y2="145.21"/>
        <line class="3d0428a7-2a4f-463d-8d7e-65713d5f663d" x1="7.15" y1="123.68" x2="25.15" y2="123.68"/>
        <line class="3d0428a7-2a4f-463d-8d7e-65713d5f663d" x1="181.77" y1="137.93" x2="199.77" y2="137.93"/>
        <line class="3d0428a7-2a4f-463d-8d7e-65713d5f663d" x1="207.1" y1="63.21" x2="225.1" y2="63.21"/>
        <g>
          <g>
            <path class="88f65db6-9b64-4de3-8c12-f9b668d9a536" d="M176.27,125.21c2.91-2.91,8.6-6.33,10.87-6.33l10.21.12"/>
            <path class="88f65db6-9b64-4de3-8c12-f9b668d9a536" d="M140.66,132h-6.5a10,10,0,0,1-10-10l-5.65-33.54a10,10,0,0,1,10-10h68.85"/>
            <path class="88f65db6-9b64-4de3-8c12-f9b668d9a536" d="M177.28,124.2l-21,21a10.26,10.26,0,0,1-14.52,0h0a10.26,10.26,0,0,1,0-14.52l17.75-17.75"/>
            <path class="fa42ff35-00ff-42df-95c1-378c2a481dd2" d="M159.53,112.92s1.35-12.54-10.49-12.54"/>
            <path class="fa42ff35-00ff-42df-95c1-378c2a481dd2" d="M158,114.42s-6.86-7.31-16.57,0"/>
          </g>
          <line class="fa42ff35-00ff-42df-95c1-378c2a481dd2" x1="141.46" y1="101.63" x2="141.46" y2="114.42"/>
          <rect class="88f65db6-9b64-4de3-8c12-f9b668d9a536" x="197.36" y="72.92" width="18.74" height="57.64"/>
          <g>
            <path class="88f65db6-9b64-4de3-8c12-f9b668d9a536" d="M108.28,83.67l-1,1.49L99.15,97.77,98.32,99s-10.8-4.76-21-.1a24.18,24.18,0,0,0-10.92,10.44,8.38,8.38,0,0,1-1.18.59c-3,1.23-11.62,5.66-25-3.32,0,0-.34-1-.77-2.71-1.44-5.74-3.91-19.39,2.17-29a19.35,19.35,0,0,1,2.3-3S87.23,64.53,108.28,83.67Z"/>
            <path class="88f65db6-9b64-4de3-8c12-f9b668d9a536" d="M110.81,92.76a7.5,7.5,0,0,1-8.6,6.22,7.4,7.4,0,0,1-3.06-1.22l8.16-12.6A7.53,7.53,0,0,1,110.81,92.76Z"/>
            <path class="88f65db6-9b64-4de3-8c12-f9b668d9a536" d="M101.31,98.78l-5.14,5,.41,16.92s11.21,9.37,19.21,1l-5.09-31.9"/>
            <path class="88f65db6-9b64-4de3-8c12-f9b668d9a536" d="M81.3,107.59A8.54,8.54,0,0,1,65.2,110a8.14,8.14,0,0,0,1.18-.59A24.22,24.22,0,0,1,77.3,98.94,8.54,8.54,0,0,1,81.3,107.59Z"/>
            <path class="88f65db6-9b64-4de3-8c12-f9b668d9a536" d="M68.31,113.45,74.4,133s1.82-11.38,14.62-9.33l-8-19.95"/>
            <path class="88f65db6-9b64-4de3-8c12-f9b668d9a536" d="M74.76,133.17,74.4,133"/>
            <path class="88f65db6-9b64-4de3-8c12-f9b668d9a536" d="M89,123.68s23.26,4.35,20.86,15c-1.33,8.33-15,2-17.54,1.56a45.7,45.7,0,0,1-6.11-2.2"/>
            <line class="88f65db6-9b64-4de3-8c12-f9b668d9a536" x1="96.58" y1="120.73" x2="88.45" y2="122.26"/>
            <path class="88f65db6-9b64-4de3-8c12-f9b668d9a536" d="M115.79,121.76s1.76,7.51-7.78,10.51"/>
            <path class="88f65db6-9b64-4de3-8c12-f9b668d9a536" d="M86.23,138.06A6.27,6.27,0,0,1,74,135.23a6,6,0,0,1,.72-2.06C76.22,133.81,81.71,136.22,86.23,138.06Z"/>
            <path class="88f65db6-9b64-4de3-8c12-f9b668d9a536" d="M74,136.76,55,117.9s3.62-8.61,14.41-.86"/>
            <path class="88f65db6-9b64-4de3-8c12-f9b668d9a536" d="M96.49,117.37l-5.29.45s-1.87-11.9-8.67-10.33"/>
          </g>
          <path class="88f65db6-9b64-4de3-8c12-f9b668d9a536" d="M28.74,104.09c.54,1.07,1.16,2.16,1.86,3.26l-22.2.19s-12-29.74,5.54-37.2H32.63a23.59,23.59,0,0,0-2.31,3C26.87,78.5,21.51,89.94,28.74,104.09Z"/>
          <path class="88f65db6-9b64-4de3-8c12-f9b668d9a536" d="M39.48,103.94a16.08,16.08,0,0,1-10.74.15c-7.23-14.15-1.87-25.59,1.58-30.76a15.69,15.69,0,0,1,3.58-.41,15.88,15.88,0,0,1,7.75,2C35.57,84.55,38,98.2,39.48,103.94Z"/>
        </g>
        <g class="57625d81-2fc1-49c2-b32b-3856f2c2be73">
          <path class="74390b8b-8022-48c8-99a0-c52bbcc4300a" d="M139.68,50.25c0-17-14.28-19-20.44-19C97,31.3,95,45.7,94.6,49.42c0,0,.15,2.71,3.46,2.93a3,3,0,0,0,3.27-2.57c1.33-6.22,4.7-12.18,17-12.18,5.73,0,10.65,1.07,13.41,4.51,1.53,1.9,2.41,4.3,2.41,7.86a7,7,0,0,1-2.31,5.5c-2.08,1.68-4.9,1.66-19,3.33-19.55,2.3-21,11.81-21,16.76,0,9.92,12.42,15.52,21.25,15.76,2.35.07,7.37.18,11.73-1.68a23,23,0,0,0,13.84-13.87C140.41,70.82,139.68,58,139.68,50.25ZM135.24,67c0,14.11-13.85,17.87-20.12,17.87C107.89,84.92,99,81,99,73.71c0-8.33,8.24-10.23,18.48-11.8,2.9-.44,7.57.11,10.83-.53,2.35-.46,4.56-1.31,5-1.31h1.85Z"/>
        </g>
        <g>
          <line class="3d0428a7-2a4f-463d-8d7e-65713d5f663d" x1="81.47" y1="19.25" x2="95.13" y2="32.92"/>
          <line class="3d0428a7-2a4f-463d-8d7e-65713d5f663d" x1="154.05" y1="19.25" x2="140.39" y2="32.92"/>
          <line class="3d0428a7-2a4f-463d-8d7e-65713d5f663d" x1="118.52" y1="0.5" x2="118.52" y2="20.75"/>
        </g>
        <line class="3d0428a7-2a4f-463d-8d7e-65713d5f663d" x1="204.47" y1="72.92" x2="204.47" y2="93.38"/>
        <circle class="3d0428a7-2a4f-463d-8d7e-65713d5f663d" cx="206.73" cy="122.26" r="3.02"/>
        <circle class="3d0428a7-2a4f-463d-8d7e-65713d5f663d" cx="206.73" cy="112.15" r="3.02"/>
        <circle class="3d0428a7-2a4f-463d-8d7e-65713d5f663d" cx="49.44" cy="81.52" r="3.02"/>
      </g>
    </g>
  </g>
</svg>
