<svg xmlns="http://www.w3.org/2000/svg" xmlns:xlink="http://www.w3.org/1999/xlink" width="273.6" height="145.8" viewBox="0 0 273.6 145.8"><defs><style>.a,.b,.c,.d,.e{fill:none;}.b,.c,.d,.e{stroke:#fff;}.b,.c,.e{stroke-miterlimit:10;}.b,.d,.e{stroke-width:3px;}.c,.e{stroke-linecap:round;}.d{stroke-linejoin:round;}.f{clip-path:url(#a);}.g{fill:#fff;}</style><clipPath id="a" transform="translate(-7.9 -28.2)"><polygon class="a" points="72 45 52 34.5 52 93 0 93 0 0 72 0 72 45"/></clipPath></defs><title>slide-1</title><path class="b" d="M254.7,137.8a34.4,34.4,0,1,1-68.9,0,33.6,33.6,0,0,1,5.2-18.3h58.4A33.6,33.6,0,0,1,254.7,137.8Z" transform="translate(-7.9 -28.2)"/><polyline class="b" points="223.5 91.4 231.9 75 246.8 65.1"/><path class="c" d="M191.1,119.6s-2.2,15.6,15.7,12.2,39.7-8.7,47.2-1.2" transform="translate(-7.9 -28.2)"/><line class="b" x1="196.6" y1="91.4" x2="192.8" y2="76.5"/><polygon class="d" points="179.4 81.2 188.9 64.8 206.4 71.9 179.4 81.2"/><path class="c" d="M187.8,149.2s10.2,11.5,25.8,6" transform="translate(-7.9 -28.2)"/><path class="c" d="M231.5,144.2s15.5-5.1,22.3,1.7" transform="translate(-7.9 -28.2)"/><line class="e" x1="237.1" y1="133.3" x2="272.1" y2="133.3"/><line class="e" x1="29.1" y1="133.3" x2="186.1" y2="133.3"/><line class="c" x1="188.1" y1="145.3" x2="236.1" y2="145.3"/><polyline class="e" points="178.1 102.3 43.6 102.3 43.6 6.3 229.6 6.3 229.6 77.8"/><polyline class="c" points="180.1 96.3 49.6 96.3 49.6 13.3 223.6 13.3 223.6 91.8"/><rect class="c" x="63.6" y="28.3" width="12" height="12"/><rect class="c" x="63.6" y="49.3" width="12" height="12"/><rect class="c" x="63.6" y="70.3" width="12" height="12"/><line class="e" x1="91.1" y1="28.3" x2="133.1" y2="28.3"/><line class="e" x1="91.1" y1="33.3" x2="133.1" y2="33.3"/><line class="e" x1="91.1" y1="38.3" x2="107.1" y2="38.3"/><line class="e" x1="91.1" y1="48.3" x2="133.1" y2="48.3"/><line class="e" x1="91.1" y1="53.3" x2="133.1" y2="53.3"/><line class="e" x1="91.1" y1="58.3" x2="107.1" y2="58.3"/><line class="e" x1="91.1" y1="68.3" x2="133.1" y2="68.3"/><line class="e" x1="91.1" y1="73.3" x2="133.1" y2="73.3"/><line class="e" x1="91.1" y1="78.3" x2="107.1" y2="78.3"/><line class="c" x1="177.6" y1="13.8" x2="177.6" y2="95.8"/><polyline class="c" points="63.9 33 67.8 36.9 78.7 26"/><polyline class="c" points="63.9 54 67.8 57.9 78.7 47"/><polyline class="c" points="63.9 75 67.8 78.9 78.7 68"/><rect class="c" x="188.6" y="31.3" width="23" height="5"/><rect class="c" x="185.6" y="36.3" width="23" height="5"/><rect class="c" x="188.6" y="41.3" width="23" height="5"/><rect class="c" x="190.6" y="46.3" width="23" height="5"/><rect class="c" x="185.6" y="51.3" width="23" height="5"/><rect class="c" x="188.6" y="56.3" width="23" height="5"/><rect class="e" x="112.6" y="102.3" width="42" height="31"/><g class="f"><path class="g" d="M55.9,47.2c0-17-14.3-19-20.4-19-22.2,0-24.3,14.4-24.6,18.1,0,0,.1,2.7,3.5,2.9a3,3,0,0,0,3.3-2.6c1.3-6.2,4.7-12.2,17-12.2,5.7,0,10.6,1.1,13.4,4.5,1.5,1.9,2.4,4.3,2.4,7.9A7,7,0,0,1,48,52.4c-2.1,1.7-4.9,1.7-19,3.3C9.4,58,7.9,67.5,7.9,72.5c0,9.9,12.4,15.5,21.3,15.8,2.4.1,7.4.2,11.7-1.7A23,23,0,0,0,54.7,72.7C56.6,67.8,55.9,54.9,55.9,47.2ZM51,64c0,14.1-13.6,17.9-19.9,17.9s-16-3.9-16-11.2,8.3-10.2,18.5-11.8c2.9-.4,7.6.1,10.9-.5S49.1,57,49.6,57H51Z" transform="translate(-7.9 -28.2)"/></g></svg>