<svg xmlns="http://www.w3.org/2000/svg" width="102.5" height="106.4" viewBox="0 0 102.5 106.4"><defs><style>.a,.b,.c{fill:none;stroke-linecap:round;stroke-linejoin:round;}.a,.c{stroke:#99deed;}.a,.b{stroke-width:3px;}.b{stroke:#00add2;}.c{stroke-width:2px;}</style></defs><title>ico-quality-assurance-engineer</title><line class="a" x1="7" y1="86.9" x2="7" y2="71.7"/><path class="b" d="M11.6,99.6a46.7,46.7,0,0,1,5.4.3s34.4,5.1,39.8,5.1S88.8,84.4,99.1,76.7a4.6,4.6,0,0,0,.8-6.7h0a4.6,4.6,0,0,0-5.5-1.2l-28,16.8"/><path class="b" d="M46.4,83H57.1c.5-.2,6.9-.3,6.9-.3,3.4-.1,5.5-2.5,5.5-5s-2-5.3-5.9-5.4l-2.7.2H47.4l-.2-.2-.5-.3a29.3,29.3,0,0,0-11.5-3.2c-5.3-.3-9.6,1.7-16.2,7.1l-2.6,1-2.9.2"/><rect class="b" x="-9.3" y="82.4" width="32" height="10.34" rx="2.4" ry="2.4" transform="translate(94.3 80.9) rotate(90)"/><path class="b" d="M94.3,68.8a4.6,4.6,0,0,0-.9-4.4h0a4.6,4.6,0,0,0-5.5-1.2L68.8,74.8"/><path class="b" d="M79.7,67.8a4.6,4.6,0,0,0-.3-5.5h0a4.6,4.6,0,0,0-5.5-1.2l-18.2,11"/><line class="b" x1="61.7" y1="82.8" x2="68.6" y2="87.7"/><polygon class="b" points="50.3 1.5 57.1 5.8 65.2 5.9 68.7 13.2 75.4 17.7 74.4 25.7 77.7 33.1 72.4 39.3 71.2 47.3 63.4 49.7 58.1 55.8 50.3 53.6 42.4 55.8 37.1 49.7 29.3 47.3 28.1 39.3 22.8 33.1 26.1 25.7 25.1 17.7 31.8 13.2 35.3 5.9 43.4 5.8 50.3 1.5"/><circle class="c" cx="50.2" cy="29.5" r="18.9"/><polyline class="b" points="42.2 29.5 49.4 36.7 78.3 7.8"/></svg>